<?xml version="1.0" standalone="no"?>
<!DOCTYPE svg PUBLIC "-//W3C//DTD SVG 20010904//EN"
 "http://www.w3.org/TR/2001/REC-SVG-20010904/DTD/svg10.dtd">
<svg version="1.0" xmlns="http://www.w3.org/2000/svg"
 width="48.000000pt" height="48.000000pt" viewBox="0 0 48.000000 48.000000"
 preserveAspectRatio="xMidYMid meet">

<g transform="translate(0.000000,48.000000) scale(0.100000,-0.100000)"
fill="#000000" stroke="none">
<path d="M162 463 c-49 -24 -75 -68 -80 -134 -4 -51 0 -66 33 -130 44 -86 112
-189 125 -189 13 0 81 103 125 189 33 66 37 82 33 131 -5 66 -31 110 -82 134
-43 20 -112 20 -154 -1z m107 -44 c63 -22 77 -107 24 -149 -71 -55 -166 19
-132 103 10 24 31 39 75 57 1 0 15 -5 33 -11z"/>
</g>
</svg>
